<svg width="32" height="32" viewBox="0 0 500 500" fill="none" xmlns="http://www.w3.org/2000/svg">
<path d="M500 0H0V500H500V0Z" fill="#474343"/>
<path d="M221.507 142.746L300.83 93L300.848 131.8C300.854 147.138 293.321 161.321 281.081 168.997L248.789 189.32C238.17 196.799 231.484 209.353 230.819 223.07C230.782 223.825 230.764 224.58 230.764 225.342V263.629C230.764 278.981 223.213 293.158 210.961 300.827L180 320.204V193.555C180 178.216 187.539 164.046 199.773 156.37L221.513 142.739L221.507 142.746Z" fill="#27FB6B"/>
<path d="M277.493 357.946L198.17 407.692L198.152 368.892C198.146 353.554 205.679 339.371 217.919 331.695L250.211 311.372C260.83 303.893 267.516 291.339 268.181 277.622C268.218 276.867 268.236 276.112 268.236 275.35V237.063C268.236 221.711 275.787 207.534 288.039 199.865L319 180.488V279.966V307.137C319 322.476 311.461 336.646 299.227 344.322L277.487 357.953L277.493 357.946Z" fill="#27FB6B"/>
</svg>
