<svg width="17" height="18" viewBox="0 0 17 18" fill="none" xmlns="http://www.w3.org/2000/svg">
<path fill-rule="evenodd" clip-rule="evenodd" d="M6.85757 0.375C5.45867 0.375 4.21672 1.27015 3.77435 2.59726L3.5151 3.375H2.05566H0.0556641V4.875H1.33507L1.71026 14.2549C1.77998 15.9979 3.21327 17.375 4.95766 17.375H11.1537C12.8981 17.375 14.3313 15.9979 14.4011 14.2549L14.7763 4.875H16.0557V3.375H14.0557H12.5962L12.337 2.59726C11.8946 1.27015 10.6527 0.375 9.25377 0.375H6.85757ZM11.0151 3.375H5.09624L5.19737 3.0716C5.43557 2.357 6.10431 1.875 6.85757 1.875H9.25377C10.007 1.875 10.6758 2.357 10.914 3.0716L11.0151 3.375ZM6.80566 13.25V7.25H5.30566V13.25H6.80566ZM9.30566 7.25V13.25H10.8057V7.25H9.30566Z" fill="black"/>
</svg>
