<svg xmlns="http://www.w3.org/2000/svg" width="20" height="20" fill="none" viewBox="0 0 20 20"><path stroke="#000" stroke-width="1.422" d="M14.1194 7.41158L14.1194 5.66023C14.1194 4.32195 13.0345 3.23706 11.6962 3.23706L6.36524 3.23706C5.02697 3.23706 3.94208 4.32195 3.94208 5.66023L3.94208 13.6349C3.94208 14.9732 5.02697 16.0581 6.36524 16.0581L7.45778 16.0581"/><path fill="#fff" stroke="#000" stroke-linejoin="round" stroke-width="1.422" d="M11.4157 4.38178H6.64578C6.64578 3.0646 7.71356 1.99683 9.03073 1.99683C10.3479 1.99683 11.4157 3.0646 11.4157 4.38178Z"/><path stroke="#000" stroke-linejoin="round" stroke-width="1.422" d="M9.35062 7.81952H14.1193C15.19 7.81952 16.0579 8.68743 16.0579 9.75805V16.0583C16.0579 17.1289 15.19 17.9968 14.1193 17.9968H9.35062C8.28 17.9968 7.41209 17.1289 7.41209 16.0583V9.75805C7.41209 8.68743 8.28 7.81952 9.35062 7.81952Z"/><path stroke="#000" stroke-linejoin="round" stroke-width="1.422" d="M9.69045 10.9498H13.7796"/><path stroke="#000" stroke-linejoin="round" stroke-width="1.422" d="M9.69045 13.8576H12.2926"/></svg>