<svg xmlns="http://www.w3.org/2000/svg" width="21" height="18" fill="none" viewBox="0 0 21 18"><g filter="url(#filter0_d_403_2)"><path fill="#fff" d="M1445.3 563.5C1433.5 563.5 1421.8 561.5 1410.2 557.5C1398.6 553.5 1389.2 547.5 1382 539.5C1379.8 537.1 1378.9 534.4 1379.3 531.4C1379.7 528.4 1381.2 525.8 1383.8 523.6C1386.6 521.6 1389.5 520.8 1392.5 521.2C1395.5 521.6 1398 522.9 1400 525.1C1404.8 530.7 1411.1 535 1418.9 538C1426.9 541 1435.7 542.5 1445.3 542.5C1460.1 542.5 1470.8 540 1477.4 535C1484 529.8 1487.4 523.6 1487.6 516.4C1487.6 509.2 1484.2 503.3 1477.4 498.7C1470.6 493.9 1459.4 490.2 1443.8 487.6C1423.6 484.4 1408.8 478.8 1399.4 470.8C1390 462.8 1385.3 453.3 1385.3 442.3C1385.3 432.1 1388 423.6 1393.4 416.8C1398.8 410 1406 404.9 1415 401.5C1424 398.1 1433.9 396.4 1444.7 396.4C1458.1 396.4 1469.6 398.7 1479.2 403.3C1489 407.9 1496.9 414.1 1502.9 421.9C1504.9 424.5 1505.7 427.2 1505.3 430C1504.9 432.8 1503.3 435.1 1500.5 436.9C1498.1 438.3 1495.3 438.8 1492.1 438.4C1489.1 437.8 1486.5 436.3 1484.3 433.9C1479.3 428.1 1473.5 423.9 1466.9 421.3C1460.3 418.5 1452.7 417.1 1444.1 417.1C1433.1 417.1 1424.3 419.4 1417.7 424C1411.1 428.4 1407.8 434 1407.8 440.8C1407.8 445.4 1409 449.4 1411.4 452.8C1414 456.2 1418.3 459.2 1424.3 461.8C1430.5 464.4 1439.1 466.6 1450.1 468.4C1465.1 470.8 1476.9 474.4 1485.5 479.2C1494.3 483.8 1500.5 489.3 1504.1 495.7C1507.9 501.9 1509.8 508.7 1509.8 516.1C1509.8 525.5 1507 533.8 1501.4 541C1496 548 1488.4 553.5 1478.6 557.5C1469 561.5 1457.9 563.5 1445.3 563.5ZM1658.92 562C1648.32 562 1638.82 559.5 1630.42 554.5C1622.22 549.5 1615.72 542.7 1610.92 534.1C1606.12 525.3 1603.72 515.3 1603.72 504.1V357.4C1603.72 354 1604.72 351.2 1606.72 349C1608.92 346.8 1611.72 345.7 1615.12 345.7C1618.52 345.7 1621.32 346.8 1623.52 349C1625.72 351.2 1626.82 354 1626.82 357.4V504.1C1626.82 514.3 1629.82 522.7 1635.82 529.3C1641.82 535.7 1649.52 538.9 1658.92 538.9H1667.02C1670.22 538.9 1672.82 540 1674.82 542.2C1676.82 544.4 1677.82 547.2 1677.82 550.6C1677.82 554 1676.62 556.8 1674.22 559C1671.82 561 1668.82 562 1665.22 562H1658.92ZM1584.22 424C1581.22 424 1578.72 423.1 1576.72 421.3C1574.72 419.3 1573.72 416.9 1573.72 414.1C1573.72 411.1 1574.72 408.7 1576.72 406.9C1578.72 404.9 1581.22 403.9 1584.22 403.9H1660.72C1663.72 403.9 1666.22 404.9 1668.22 406.9C1670.22 408.7 1671.22 411.1 1671.22 414.1C1671.22 416.9 1670.22 419.3 1668.22 421.3C1666.22 423.1 1663.72 424 1660.72 424H1584.22ZM1832.72 563.5C1817.32 563.5 1803.52 559.9 1791.32 552.7C1779.12 545.3 1769.42 535.3 1762.22 522.7C1755.22 510.1 1751.72 495.9 1751.72 480.1C1751.72 464.1 1755.32 449.8 1762.52 437.2C1769.92 424.6 1779.92 414.7 1792.52 407.5C1805.12 400.1 1819.32 396.4 1835.12 396.4C1850.92 396.4 1865.02 400.1 1877.42 407.5C1890.02 414.7 1899.92 424.6 1907.12 437.2C1914.52 449.8 1918.32 464.1 1918.52 480.1L1909.22 487.3C1909.22 501.7 1905.82 514.7 1899.02 526.3C1892.42 537.7 1883.32 546.8 1871.72 553.6C1860.32 560.2 1847.32 563.5 1832.72 563.5ZM1835.12 542.5C1846.72 542.5 1857.02 539.8 1866.02 534.4C1875.22 529 1882.42 521.6 1887.62 512.2C1893.02 502.6 1895.72 491.9 1895.72 480.1C1895.72 468.1 1893.02 457.4 1887.62 448C1882.42 438.6 1875.22 431.2 1866.02 425.8C1857.02 420.2 1846.72 417.4 1835.12 417.4C1823.72 417.4 1813.42 420.2 1804.22 425.8C1795.02 431.2 1787.72 438.6 1782.32 448C1776.92 457.4 1774.22 468.1 1774.22 480.1C1774.22 491.9 1776.92 502.6 1782.32 512.2C1787.72 521.6 1795.02 529 1804.22 534.4C1813.42 539.8 1823.72 542.5 1835.12 542.5ZM1906.82 562C1903.42 562 1900.62 561 1898.42 559C1896.22 556.8 1895.12 554 1895.12 550.6V499.3L1900.82 475.6L1918.52 480.1V550.6C1918.52 554 1917.42 556.8 1915.22 559C1913.02 561 1910.22 562 1906.82 562ZM2080.75 563.5C2064.95 563.5 2050.95 560 2038.75 553C2026.55 545.8 2016.95 535.9 2009.95 523.3C2003.15 510.7 1999.75 496.3 1999.75 480.1C1999.75 463.7 2003.35 449.2 2010.55 436.6C2017.75 424 2027.65 414.2 2040.25 407.2C2052.85 400 2067.15 396.4 2083.15 396.4C2099.35 396.4 2113.65 400 2126.05 407.2C2138.65 414.2 2148.45 424 2155.45 436.6C2162.65 449.2 2166.35 463.7 2166.55 480.1L2153.05 487.3C2153.05 502.1 2149.95 515.3 2143.75 526.9C2137.55 538.3 2128.95 547.3 2117.95 553.9C2107.15 560.3 2094.75 563.5 2080.75 563.5ZM2083.75 626.8C2067.95 626.8 2054.05 623.8 2042.05 617.8C2030.05 612 2020.15 604 2012.35 593.8C2010.15 591.4 2009.15 588.8 2009.35 586C2009.75 583.2 2011.25 580.9 2013.85 579.1C2016.45 577.3 2019.35 576.7 2022.55 577.3C2025.75 577.9 2028.25 579.4 2030.05 581.8C2035.85 589 2043.25 594.8 2052.25 599.2C2061.45 603.6 2072.05 605.8 2084.05 605.8C2095.25 605.8 2105.35 603.1 2114.35 597.7C2123.35 592.3 2130.45 584.7 2135.65 574.9C2141.05 565.1 2143.75 553.6 2143.75 540.4V494.8L2152.45 477.4L2166.55 480.1V541.3C2166.55 557.5 2162.95 572 2155.75 584.8C2148.55 597.8 2138.75 608 2126.35 615.4C2113.95 623 2099.75 626.8 2083.75 626.8ZM2083.15 542.5C2094.95 542.5 2105.35 539.9 2114.35 534.7C2123.55 529.3 2130.75 521.9 2135.95 512.5C2141.15 503.1 2143.75 492.3 2143.75 480.1C2143.75 467.9 2141.15 457.1 2135.95 447.7C2130.75 438.1 2123.55 430.7 2114.35 425.5C2105.35 420.1 2094.95 417.4 2083.15 417.4C2071.35 417.4 2060.85 420.1 2051.65 425.5C2042.45 430.7 2035.25 438.1 2030.05 447.7C2024.85 457.1 2022.25 467.9 2022.25 480.1C2022.25 492.3 2024.85 503.1 2030.05 512.5C2035.25 521.9 2042.45 529.3 2051.65 534.7C2060.85 539.9 2071.35 542.5 2083.15 542.5ZM2272.98 562C2269.38 562 2266.48 561 2264.28 559C2262.28 556.8 2261.28 553.9 2261.28 550.3V409.6C2261.28 406 2262.28 403.2 2264.28 401.2C2266.48 399 2269.38 397.9 2272.98 397.9C2276.38 397.9 2279.08 399 2281.08 401.2C2283.28 403.2 2284.38 406 2284.38 409.6V550.3C2284.38 553.9 2283.28 556.8 2281.08 559C2279.08 561 2276.38 562 2272.98 562ZM2272.68 366.7C2268.28 366.7 2264.48 365.1 2261.28 361.9C2258.08 358.7 2256.48 354.8 2256.48 350.2C2256.48 345.2 2258.08 341.3 2261.28 338.5C2264.68 335.5 2268.58 334 2272.98 334C2277.18 334 2280.88 335.5 2284.08 338.5C2287.48 341.3 2289.18 345.2 2289.18 350.2C2289.18 354.8 2287.58 358.7 2284.38 361.9C2281.18 365.1 2277.28 366.7 2272.68 366.7ZM2528.9 562C2525.5 562 2522.7 560.9 2520.5 558.7C2518.3 556.5 2517.2 553.8 2517.2 550.6V472.6C2517.2 460.2 2514.8 450 2510 442C2505.4 434 2499 428 2490.8 424C2482.8 420 2473.7 418 2463.5 418C2453.7 418 2444.8 419.9 2436.8 423.7C2429 427.5 2422.8 432.7 2418.2 439.3C2413.6 445.9 2411.3 453.4 2411.3 461.8H2394.8C2395.2 449.2 2398.6 438 2405 428.2C2411.4 418.2 2419.9 410.4 2430.5 404.8C2441.1 399 2452.9 396.1 2465.9 396.1C2480.1 396.1 2492.8 399.1 2504 405.1C2515.2 410.9 2524 419.5 2530.4 430.9C2537 442.3 2540.3 456.2 2540.3 472.6V550.6C2540.3 553.8 2539.2 556.5 2537 558.7C2534.8 560.9 2532.1 562 2528.9 562ZM2399.9 562C2396.3 562 2393.4 561 2391.2 559C2389.2 556.8 2388.2 554 2388.2 550.6V409.6C2388.2 406 2389.2 403.2 2391.2 401.2C2393.4 399 2396.3 397.9 2399.9 397.9C2403.3 397.9 2406 399 2408 401.2C2410.2 403.2 2411.3 406 2411.3 409.6V550.6C2411.3 554 2410.2 556.8 2408 559C2406 561 2403.3 562 2399.9 562ZM2708.52 563.5C2692.72 563.5 2678.72 560 2666.52 553C2654.32 545.8 2644.72 535.9 2637.72 523.3C2630.92 510.7 2627.52 496.3 2627.52 480.1C2627.52 463.7 2631.12 449.2 2638.32 436.6C2645.52 424 2655.42 414.2 2668.02 407.2C2680.62 400 2694.92 396.4 2710.92 396.4C2727.12 396.4 2741.42 400 2753.82 407.2C2766.42 414.2 2776.22 424 2783.22 436.6C2790.42 449.2 2794.12 463.7 2794.32 480.1L2780.82 487.3C2780.82 502.1 2777.72 515.3 2771.52 526.9C2765.32 538.3 2756.72 547.3 2745.72 553.9C2734.92 560.3 2722.52 563.5 2708.52 563.5ZM2711.52 626.8C2695.72 626.8 2681.82 623.8 2669.82 617.8C2657.82 612 2647.92 604 2640.12 593.8C2637.92 591.4 2636.92 588.8 2637.12 586C2637.52 583.2 2639.02 580.9 2641.62 579.1C2644.22 577.3 2647.12 576.7 2650.32 577.3C2653.52 577.9 2656.02 579.4 2657.82 581.8C2663.62 589 2671.02 594.8 2680.02 599.2C2689.22 603.6 2699.82 605.8 2711.82 605.8C2723.02 605.8 2733.12 603.1 2742.12 597.7C2751.12 592.3 2758.22 584.7 2763.42 574.9C2768.82 565.1 2771.52 553.6 2771.52 540.4V494.8L2780.22 477.4L2794.32 480.1V541.3C2794.32 557.5 2790.72 572 2783.52 584.8C2776.32 597.8 2766.52 608 2754.12 615.4C2741.72 623 2727.52 626.8 2711.52 626.8ZM2710.92 542.5C2722.72 542.5 2733.12 539.9 2742.12 534.7C2751.32 529.3 2758.52 521.9 2763.72 512.5C2768.92 503.1 2771.52 492.3 2771.52 480.1C2771.52 467.9 2768.92 457.1 2763.72 447.7C2758.52 438.1 2751.32 430.7 2742.12 425.5C2733.12 420.1 2722.72 417.4 2710.92 417.4C2699.12 417.4 2688.62 420.1 2679.42 425.5C2670.22 430.7 2663.02 438.1 2657.82 447.7C2652.62 457.1 2650.02 467.9 2650.02 480.1C2650.02 492.3 2652.62 503.1 2657.82 512.5C2663.02 521.9 2670.22 529.3 2679.42 534.7C2688.62 539.9 2699.12 542.5 2710.92 542.5ZM3052.54 562C3044.54 562 3037.34 559.8 3030.94 555.4C3024.74 551 3019.84 544.9 3016.24 537.1C3012.84 529.3 3011.14 520.3 3011.14 510.1V339.1C3011.14 335.7 3012.14 333 3014.14 331C3016.34 328.8 3019.14 327.7 3022.54 327.7C3025.94 327.7 3028.64 328.8 3030.64 331C3032.84 333 3033.94 335.7 3033.94 339.1V510.1C3033.94 518.7 3035.64 525.7 3039.04 531.1C3042.64 536.5 3047.14 539.2 3052.54 539.2H3060.04C3063.04 539.2 3065.44 540.3 3067.24 542.5C3069.04 544.5 3069.94 547.2 3069.94 550.6C3069.94 554 3068.64 556.8 3066.04 559C3063.64 561 3060.44 562 3056.44 562H3052.54ZM3210.03 563.5C3194.63 563.5 3180.83 559.9 3168.63 552.7C3156.43 545.3 3146.73 535.3 3139.53 522.7C3132.53 510.1 3129.03 495.9 3129.03 480.1C3129.03 464.1 3132.63 449.8 3139.83 437.2C3147.23 424.6 3157.23 414.7 3169.83 407.5C3182.43 400.1 3196.63 396.4 3212.43 396.4C3228.23 396.4 3242.33 400.1 3254.73 407.5C3267.33 414.7 3277.23 424.6 3284.43 437.2C3291.83 449.8 3295.63 464.1 3295.83 480.1L3286.53 487.3C3286.53 501.7 3283.13 514.7 3276.33 526.3C3269.73 537.7 3260.63 546.8 3249.03 553.6C3237.63 560.2 3224.63 563.5 3210.03 563.5ZM3212.43 542.5C3224.03 542.5 3234.33 539.8 3243.33 534.4C3252.53 529 3259.73 521.6 3264.93 512.2C3270.33 502.6 3273.03 491.9 3273.03 480.1C3273.03 468.1 3270.33 457.4 3264.93 448C3259.73 438.6 3252.53 431.2 3243.33 425.8C3234.33 420.2 3224.03 417.4 3212.43 417.4C3201.03 417.4 3190.73 420.2 3181.53 425.8C3172.33 431.2 3165.03 438.6 3159.63 448C3154.23 457.4 3151.53 468.1 3151.53 480.1C3151.53 491.9 3154.23 502.6 3159.63 512.2C3165.03 521.6 3172.33 529 3181.53 534.4C3190.73 539.8 3201.03 542.5 3212.43 542.5ZM3284.13 562C3280.73 562 3277.93 561 3275.73 559C3273.53 556.8 3272.43 554 3272.43 550.6V499.3L3278.13 475.6L3295.83 480.1V550.6C3295.83 554 3294.73 556.8 3292.53 559C3290.33 561 3287.53 562 3284.13 562ZM3468.85 563.5C3453.25 563.5 3439.15 559.9 3426.55 552.7C3414.15 545.5 3404.25 535.7 3396.85 523.3C3389.65 510.7 3385.95 496.6 3385.75 481V339.4C3385.75 335.8 3386.75 333 3388.75 331C3390.95 328.8 3393.85 327.7 3397.45 327.7C3400.85 327.7 3403.55 328.8 3405.55 331C3407.75 333 3408.85 335.8 3408.85 339.4V427.6C3415.45 418.2 3424.15 410.7 3434.95 405.1C3445.95 399.3 3458.15 396.4 3471.55 396.4C3486.95 396.4 3500.75 400.1 3512.95 407.5C3525.15 414.7 3534.75 424.6 3541.75 437.2C3548.95 449.8 3552.55 464 3552.55 479.8C3552.55 495.8 3548.85 510.1 3541.45 522.7C3534.25 535.3 3524.35 545.3 3511.75 552.7C3499.15 559.9 3484.85 563.5 3468.85 563.5ZM3468.85 542.5C3480.45 542.5 3490.85 539.8 3500.05 534.4C3509.25 528.8 3516.45 521.3 3521.65 511.9C3527.05 502.5 3529.75 491.8 3529.75 479.8C3529.75 468 3527.05 457.4 3521.65 448C3516.45 438.4 3509.25 430.9 3500.05 425.5C3490.85 420.1 3480.45 417.4 3468.85 417.4C3457.45 417.4 3447.15 420.1 3437.95 425.5C3428.75 430.9 3421.55 438.4 3416.35 448C3411.15 457.4 3408.55 468 3408.55 479.8C3408.55 491.8 3411.15 502.5 3416.35 511.9C3421.55 521.3 3428.75 528.8 3437.95 534.4C3447.15 539.8 3457.45 542.5 3468.85 542.5ZM3700.16 563.5C3688.36 563.5 3676.66 561.5 3665.06 557.5C3653.46 553.5 3644.06 547.5 3636.86 539.5C3634.66 537.1 3633.76 534.4 3634.16 531.4C3634.56 528.4 3636.06 525.8 3638.66 523.6C3641.46 521.6 3644.36 520.8 3647.36 521.2C3650.36 521.6 3652.86 522.9 3654.86 525.1C3659.66 530.7 3665.96 535 3673.76 538C3681.76 541 3690.56 542.5 3700.16 542.5C3714.96 542.5 3725.66 540 3732.26 535C3738.86 529.8 3742.26 523.6 3742.46 516.4C3742.46 509.2 3739.06 503.3 3732.26 498.7C3725.46 493.9 3714.26 490.2 3698.66 487.6C3678.46 484.4 3663.66 478.8 3654.26 470.8C3644.86 462.8 3640.16 453.3 3640.16 442.3C3640.16 432.1 3642.86 423.6 3648.26 416.8C3653.66 410 3660.86 404.9 3669.86 401.5C3678.86 398.1 3688.76 396.4 3699.56 396.4C3712.96 396.4 3724.46 398.7 3734.06 403.3C3743.86 407.9 3751.76 414.1 3757.76 421.9C3759.76 424.5 3760.56 427.2 3760.16 430C3759.76 432.8 3758.16 435.1 3755.36 436.9C3752.96 438.3 3750.16 438.8 3746.96 438.4C3743.96 437.8 3741.36 436.3 3739.16 433.9C3734.16 428.1 3728.36 423.9 3721.76 421.3C3715.16 418.5 3707.56 417.1 3698.96 417.1C3687.96 417.1 3679.16 419.4 3672.56 424C3665.96 428.4 3662.66 434 3662.66 440.8C3662.66 445.4 3663.86 449.4 3666.26 452.8C3668.86 456.2 3673.16 459.2 3679.16 461.8C3685.36 464.4 3693.96 466.6 3704.96 468.4C3719.96 470.8 3731.76 474.4 3740.36 479.2C3749.16 483.8 3755.36 489.3 3758.96 495.7C3762.76 501.9 3764.66 508.7 3764.66 516.1C3764.66 525.5 3761.86 533.8 3756.26 541C3750.86 548 3743.26 553.5 3733.46 557.5C3723.86 561.5 3712.76 563.5 3700.16 563.5Z"/><circle cx="220.103" cy="467.103" r="183.103" stroke="#fff" stroke-width="65"/><circle cx="877.309" cy="467.103" r="183.603" fill="#fff" stroke="#fff"/><line x1="548.211" x2="548.211" y1="15" y2="913" stroke="#fff" stroke-linecap="round" stroke-width="30"/><path fill="#fff" d="M2963.4 863C2959.67 863 2956.8 861.4 2954.8 858.2C2952.8 855 2952.6 851.6 2954.2 848L3010.4 713.8C3012.4 709.133 3015.67 706.8 3020.2 706.8C3025 706.8 3028.27 709.133 3030 713.8L3086.4 848.4C3087.87 852.133 3087.6 855.533 3085.6 858.6C3083.73 861.533 3080.87 863 3077 863C3075 863 3073.07 862.467 3071.2 861.4C3069.47 860.2 3068.2 858.6 3067.4 856.6L3017.8 733.4H3023.4L2973 856.6C2972.07 858.733 2970.67 860.333 2968.8 861.4C2967.07 862.467 2965.27 863 2963.4 863ZM2974 828.6L2982 811.4H3060.4L3068.4 828.6H2974ZM3150.43 863C3147.49 863 3145.03 862 3143.03 860C3141.16 858 3140.23 855.533 3140.23 852.6V717.2C3140.23 714.267 3141.23 711.8 3143.23 709.8C3145.23 707.8 3147.63 706.8 3150.43 706.8C3153.36 706.8 3155.83 707.8 3157.83 709.8C3159.83 711.8 3160.83 714.267 3160.83 717.2V842.2H3233.23C3236.16 842.2 3238.63 843.2 3240.63 845.2C3242.63 847.2 3243.63 849.667 3243.63 852.6C3243.63 855.533 3242.63 858 3240.63 860C3238.63 862 3236.16 863 3233.23 863H3150.43ZM3308.95 863C3306.01 863 3303.55 862 3301.55 860C3299.55 858 3298.55 855.533 3298.55 852.6V717.2C3298.55 714.133 3299.55 711.667 3301.55 709.8C3303.55 707.8 3306.01 706.8 3308.95 706.8H3348.95C3358.95 706.8 3367.81 709 3375.55 713.4C3383.28 717.8 3389.28 723.933 3393.55 731.8C3397.95 739.533 3400.15 748.467 3400.15 758.6C3400.15 768.333 3397.95 777 3393.55 784.6C3389.28 792.2 3383.28 798.133 3375.55 802.4C3367.81 806.667 3358.95 808.8 3348.95 808.8H3319.35V852.6C3319.35 855.533 3318.35 858 3316.35 860C3314.48 862 3312.01 863 3308.95 863ZM3319.35 789.6H3348.95C3355.08 789.6 3360.48 788.267 3365.15 785.6C3369.81 782.933 3373.48 779.267 3376.15 774.6C3378.81 769.933 3380.15 764.6 3380.15 758.6C3380.15 752.2 3378.81 746.6 3376.15 741.8C3373.48 736.867 3369.81 733 3365.15 730.2C3360.48 727.4 3355.08 726 3348.95 726H3319.35V789.6ZM3463.56 863C3460.62 863 3458.16 862 3456.16 860C3454.16 858 3453.16 855.533 3453.16 852.6V717.2C3453.16 714.133 3454.16 711.667 3456.16 709.8C3458.16 707.8 3460.62 706.8 3463.56 706.8C3466.62 706.8 3469.09 707.8 3470.96 709.8C3472.96 711.667 3473.96 714.133 3473.96 717.2V774.6H3566.76V717.2C3566.76 714.133 3567.76 711.667 3569.76 709.8C3571.76 707.8 3574.22 706.8 3577.16 706.8C3580.22 706.8 3582.69 707.8 3584.56 709.8C3586.42 711.667 3587.36 714.133 3587.36 717.2V852.6C3587.36 855.533 3586.42 858 3584.56 860C3582.69 862 3580.22 863 3577.16 863C3574.22 863 3571.76 862 3569.76 860C3567.76 858 3566.76 855.533 3566.76 852.6V793H3473.96V852.6C3473.96 855.533 3472.96 858 3470.96 860C3469.09 862 3466.62 863 3463.56 863ZM3651.18 863C3647.44 863 3644.58 861.4 3642.58 858.2C3640.58 855 3640.38 851.6 3641.98 848L3698.18 713.8C3700.18 709.133 3703.44 706.8 3707.98 706.8C3712.78 706.8 3716.04 709.133 3717.78 713.8L3774.18 848.4C3775.64 852.133 3775.38 855.533 3773.38 858.6C3771.51 861.533 3768.64 863 3764.78 863C3762.78 863 3760.84 862.467 3758.98 861.4C3757.24 860.2 3755.98 858.6 3755.18 856.6L3705.58 733.4H3711.18L3660.78 856.6C3659.84 858.733 3658.44 860.333 3656.58 861.4C3654.84 862.467 3653.04 863 3651.18 863ZM3661.78 828.6L3669.78 811.4H3748.18L3756.18 828.6H3661.78Z"/></g><defs><filter id="filter0_d_403_2" width="3779.88" height="936" x=".5" y="0" color-interpolation-filters="sRGB" filterUnits="userSpaceOnUse"><feFlood flood-opacity="0" result="BackgroundImageFix"/><feColorMatrix in="SourceAlpha" result="hardAlpha" type="matrix" values="0 0 0 0 0 0 0 0 0 0 0 0 0 0 0 0 0 0 127 0"/><feOffset dy="4"/><feGaussianBlur stdDeviation="2"/><feComposite in2="hardAlpha" operator="out"/><feColorMatrix type="matrix" values="0 0 0 0 0 0 0 0 0 0 0 0 0 0 0 0 0 0 0.25 0"/><feBlend in2="BackgroundImageFix" mode="normal" result="effect1_dropShadow_403_2"/><feBlend in="SourceGraphic" in2="effect1_dropShadow_403_2" mode="normal" result="shape"/></filter></defs></svg>